<svg xmlns="http://www.w3.org/2000/svg" viewBox="0 0 512 512"><style>.ink{fill:#191919}.dot{fill:#ec1e24}@media (prefers-color-scheme:dark){.ink{fill:#fef9f9}}</style><path class="ink" d="M92.97,257.83h.02c0-16.74,13.57-30.31,30.31-30.31h25.25v-33.18h-25.25c-35.06,0-63.48,28.42-63.48,63.48h0v63.48h33.15v-63.48Z"/>
    <circle class="dot" cx="449.05" cy="296.7" r="24.61"/>
    <path class="ink" d="M282.61,227.5v-33.15h-63.48c-35.06,0-63.48,28.42-63.48,63.48s28.42,63.48,63.48,63.48c7.54,0,14.77-1.32,21.48-3.73v-38.33c-5.49,5.51-13.09,8.91-21.48,8.91-16.75,0-30.33-13.58-30.33-30.33s13.58-30.33,30.33-30.33h30.33v30.33s0,.06,0,.09v55.69s0,0,0,0v7.71h33.15v-79.7h0v-14.11h0Z"/>
    <path class="ink" d="M419.66,194.34v-54.27h-33.15v117.75c0,16.75-13.58,30.33-30.33,30.33s-30.33-13.58-30.33-30.33,13.58-30.33,30.33-30.33h21.48v-33.15h-21.48c-35.06,0-63.48,28.42-63.48,63.48s28.42,63.48,63.48,63.48,63.48-28.42,63.48-63.48h0v-30.33h0v-33.15h0Z"/></svg>